<svg xmlns="http://www.w3.org/2000/svg" width="32" height="32" viewBox="0 0 32 32">
  <rect x="0" y="0" width="6.5" height="6.5" rx="1.5" fill="#10b981"/>
  <rect x="8.5" y="0" width="6.5" height="6.5" rx="1.5" fill="#e0e0e0"/>
  <rect x="17" y="0" width="6.5" height="6.5" rx="1.5" fill="#e0e0e0"/>
  <rect x="25.5" y="0" width="6.5" height="6.5" rx="1.5" fill="#10b981"/>
  <rect x="0" y="8.5" width="6.5" height="6.5" rx="1.5" fill="#10b981"/>
  <rect x="8.5" y="8.5" width="6.5" height="6.5" rx="1.5" fill="#e0e0e0"/>
  <rect x="17" y="8.5" width="6.5" height="6.5" rx="1.5" fill="#e0e0e0"/>
  <rect x="25.5" y="8.5" width="6.5" height="6.5" rx="1.5" fill="#10b981"/>
  <rect x="0" y="17" width="6.5" height="6.5" rx="1.5" fill="#e0e0e0"/>
  <rect x="8.5" y="17" width="6.5" height="6.5" rx="1.5" fill="#10b981"/>
  <rect x="17" y="17" width="6.5" height="6.5" rx="1.5" fill="#10b981"/>
  <rect x="25.5" y="17" width="6.5" height="6.5" rx="1.5" fill="#e0e0e0"/>
  <rect x="0" y="25.5" width="6.5" height="6.5" rx="1.5" fill="#e0e0e0"/>
  <rect x="8.5" y="25.5" width="6.5" height="6.5" rx="1.5" fill="#10b981"/>
  <rect x="17" y="25.5" width="6.5" height="6.5" rx="1.5" fill="#e0e0e0"/>
  <rect x="25.5" y="25.5" width="6.5" height="6.5" rx="1.5" fill="#e0e0e0"/>
</svg>
